HIERARCHY
ROOT root
{
	OFFSET 0.000000 0.000000 0.000000
	CHANNELS 6 Xposition Yposition Zposition Zrotation Yrotation Xrotation
	JOINT lhip
	{
		OFFSET 0.058581 -0.082280 -0.017664
		CHANNELS 3 Zrotation Yrotation Xrotation
		JOINT lknee
		{
			OFFSET 0.043451 -0.386469 0.008037
			CHANNELS 3 Zrotation Yrotation Xrotation
			JOINT lankle
			{
				OFFSET -0.014790 -0.426874 -0.037428
				CHANNELS 3 Zrotation Yrotation Xrotation
				JOINT ltoe
				{
					OFFSET 0.041054 -0.060286 0.122042
					CHANNELS 3 Zrotation Yrotation Xrotation
					End Site
					{
						OFFSET 0.000000 0.000000 0.000000
					}
				}
			}
		}
	}
	JOINT rhip
	{
		OFFSET -0.060310 -0.090513 -0.013543
		CHANNELS 3 Zrotation Yrotation Xrotation
		JOINT rknee
		{
			OFFSET -0.043257 -0.383688 -0.004843
			CHANNELS 3 Zrotation Yrotation Xrotation
			JOINT rankle
			{
				OFFSET 0.019056 -0.420046 -0.034562
				CHANNELS 3 Zrotation Yrotation Xrotation
				JOINT rtoe
				{
					OFFSET -0.034840 -0.062106 0.130323
					CHANNELS 3 Zrotation Yrotation Xrotation
					End Site
					{
						OFFSET 0.000000 0.000000 0.000000
					}
				}
			}
		}
	}
	JOINT lowerback
	{
		OFFSET 0.004439 0.124404 -0.038385
		CHANNELS 3 Zrotation Yrotation Xrotation
		JOINT upperback
		{
			OFFSET 0.004488 0.137956 0.026820
			CHANNELS 3 Zrotation Yrotation Xrotation
			JOINT chest
			{
				OFFSET -0.002265 0.056032 0.002855
				CHANNELS 3 Zrotation Yrotation Xrotation
				JOINT lowerneck
				{
					OFFSET -0.013390 0.211636 -0.033468
					CHANNELS 3 Zrotation Yrotation Xrotation
					JOINT upperneck
					{
						OFFSET 0.010113 0.088937 0.050410
						CHANNELS 3 Zrotation Yrotation Xrotation
						End Site
						{
							OFFSET 0.000000 0.000000 0.000000
						}
					}
				}
				JOINT lclavicle
				{
					OFFSET 0.071702 0.114000 -0.018898
					CHANNELS 3 Zrotation Yrotation Xrotation
					JOINT lshoulder
					{
						OFFSET 0.122921 0.045205 -0.019046
						CHANNELS 3 Zrotation Yrotation Xrotation
						JOINT lelbow
						{
							OFFSET 0.255332 -0.015649 -0.022946
							CHANNELS 3 Zrotation Yrotation Xrotation
							JOINT lwrist
							{
								OFFSET 0.265709 0.012698 -0.007375
								CHANNELS 3 Zrotation Yrotation Xrotation
								End Site
								{
									OFFSET 0.000000 0.000000 0.000000
								}
							}
						}
					}
				}
				JOINT rclavicle
				{
					OFFSET -0.082954 0.112472 -0.023707
					CHANNELS 3 Zrotation Yrotation Xrotation
					JOINT rshoulder
					{
						OFFSET -0.113228 0.046853 -0.008472
						CHANNELS 3 Zrotation Yrotation Xrotation
						JOINT relbow
						{
							OFFSET -0.260127 -0.014369 -0.031269
							CHANNELS 3 Zrotation Yrotation Xrotation
							JOINT rwrist
							{
								OFFSET -0.269108 0.006794 -0.006027
								CHANNELS 3 Zrotation Yrotation Xrotation
								End Site
								{
									OFFSET 0.000000 0.000000 0.000000
								}
							}
						}
					}
				}
			}
		}
	}
}
MOTION
Frames: 12
Frame Time: 0.033333
-0.359745 -1.880001 1.020416 -5.576215 0.672075 81.922951 1.043395 2.327521 6.911381 -3.903782 1.407256 10.780557 4.094719 13.864414 -19.234094 0.000000 -0.000000 0.000000 1.755949 0.869469 0.553352 -1.210439 1.159402 19.522433 -0.306260 -9.893231 -21.851694 0.000000 -0.000000 0.000000 -0.967735 -0.451218 1.811187 1.656105 -3.587679 6.349675 0.648009 -2.180633 0.168535 3.564726 3.315049 -2.236212 1.877215 3.319950 3.294927 -28.415872 -3.083344 7.609501 -60.383941 -5.734248 10.168714 11.894633 -25.421521 1.113539 1.524441 -3.831484 -12.271445 25.724868 4.523418 7.270636 57.777286 2.138038 14.150097 -13.014406 27.730771 0.506615 7.733141 5.208780 -14.905397 
-0.362443 -1.880738 1.021650 -5.603609 0.607699 81.900090 1.154483 2.563257 6.967397 -3.920001 1.633033 10.740789 3.873680 13.862279 -18.631553 0.000000 -0.000000 0.000000 1.673411 0.439110 1.269856 -1.133085 0.951644 18.341064 -0.469626 -9.326407 -21.470254 0.000000 -0.000000 0.000000 -0.832075 -0.411831 1.844869 1.446562 -3.628972 6.244894 0.641444 -2.112943 0.284012 3.380832 3.360643 -2.244154 1.861699 3.489910 3.354673 -28.364015 -3.265548 7.567376 -60.354531 -5.701013 9.948591 11.975074 -25.255065 1.000339 1.336320 -3.778676 -12.302319 25.568404 4.902381 7.294627 57.851231 2.412810 14.171819 -12.896972 28.229613 0.907516 7.693533 5.244549 -15.196186 
-0.365057 -1.881663 1.022763 -5.565958 0.551185 81.943909 1.172726 2.744575 7.104071 -3.821206 1.899555 10.418042 3.729311 13.959768 -18.092270 0.000000 -0.000000 0.000000 1.558635 0.290167 2.015289 -0.900527 0.702993 17.032693 -0.512674 -8.926464 -21.061730 0.000000 -0.000000 0.000000 -0.742490 -0.387261 1.783203 1.348380 -3.655278 6.170003 0.621540 -2.093758 0.215988 3.273374 3.415101 -2.096587 1.819246 3.593873 3.611696 -28.325776 -3.262772 7.544157 -60.342128 -5.676030 9.839933 12.061277 -25.146375 0.817852 1.390149 -3.784159 -12.206678 25.473384 4.970446 7.285629 57.844099 2.704051 14.228026 -12.745770 28.624572 1.153219 7.539294 5.291703 -15.223303 
-0.368007 -1.882898 1.023766 -5.512885 0.584923 81.951232 1.189353 2.929905 7.645820 -3.557615 2.316508 9.435841 3.655087 14.154727 -17.647796 0.000000 -0.000000 0.000000 1.523555 0.316449 2.976420 -0.521681 0.454777 15.405004 -0.512418 -8.517519 -20.644085 0.000000 -0.000000 0.000000 -0.514481 -0.447432 1.666619 1.261085 -3.634103 6.149005 0.594914 -2.038765 0.135141 3.218351 3.535136 -1.943572 1.717456 3.632657 4.092758 -28.244950 -3.232057 7.533008 -60.364603 -5.632078 9.709350 12.093039 -25.180114 0.725130 0.758958 -3.883140 -11.990128 25.359057 5.032942 7.295063 57.877551 3.003302 14.221985 -12.781942 29.021524 1.149361 7.549272 5.338428 -15.297548 
-0.369535 -1.883196 1.023849 -5.508275 0.693024 82.069789 1.261491 3.026472 7.933892 -3.357981 2.471109 8.663070 3.734067 14.245581 -17.604106 0.000000 -0.000000 0.000000 1.561477 0.197724 3.286300 -0.290887 0.364967 14.661746 -0.550668 -8.316163 -20.400907 0.000000 -0.000000 0.000000 -0.270867 -0.473949 1.455148 1.241804 -3.611115 6.204093 0.573699 -2.023184 0.081371 3.178179 3.538181 -1.871215 1.635659 3.687610 4.340632 -28.236795 -3.196289 7.552667 -60.374351 -5.623894 9.665107 12.163572 -25.372565 0.689444 0.519493 -3.933484 -11.876045 25.262154 5.085789 7.312453 57.878621 3.171373 14.193381 -12.816358 29.215841 1.090617 7.553293 5.378584 -15.343666 
-0.371150 -1.883109 1.023285 -5.344845 0.942929 82.292538 1.485536 3.099884 8.305308 -3.085231 2.351531 7.484334 3.879846 14.204399 -17.728119 0.000000 -0.000000 0.000000 1.669322 0.054099 3.539603 0.103195 0.207623 13.831514 -0.597952 -8.149996 -20.164266 0.000000 -0.000000 0.000000 0.114709 -0.594286 1.221288 1.278316 -3.592098 6.232495 0.576455 -2.037952 0.002433 3.147985 3.526525 -1.848521 1.513194 3.719954 4.595911 -28.284066 -3.121506 7.583118 -60.398739 -5.662334 9.648046 12.287709 -25.762750 0.664227 0.347959 -4.024839 -11.685007 25.142318 5.089032 7.300615 57.749653 3.347632 14.133648 -12.776208 29.489279 1.058216 7.480843 5.462728 -15.354481 
-0.372555 -1.882971 1.022362 -4.959471 1.241961 82.415695 1.948532 3.277033 8.964711 -3.018402 1.989233 5.956354 3.914413 13.867307 -17.820385 0.000000 -0.000000 0.000000 1.825064 -0.004124 3.858430 0.505498 -0.185266 13.115029 -0.601658 -8.097119 -20.004669 0.000000 -0.000000 0.000000 0.412155 -0.818923 1.219069 1.367666 -3.590258 6.200708 0.642217 -2.086987 -0.101848 3.205717 3.530150 -1.897625 1.433072 3.663955 4.777106 -28.355801 -3.040915 7.595894 -60.415350 -5.712659 9.667871 12.387375 -26.232094 0.643524 0.403587 -4.143334 -11.486395 25.122930 5.052414 7.265674 57.492524 3.435832 14.041953 -12.679478 29.661552 1.013392 7.254787 5.568279 -15.212489 
-0.373739 -1.882355 1.021571 -4.395095 1.462689 82.561263 2.460559 3.602111 9.688396 -3.140095 1.530723 4.151749 3.868421 13.330213 -17.618945 0.000000 -0.000000 0.000000 1.954257 -0.048309 4.001998 0.778361 -0.757635 12.606650 -0.592817 -8.077799 -19.864722 0.000000 -0.000000 0.000000 0.448412 -1.101328 1.210625 1.482603 -3.641973 6.340549 0.803714 -2.125342 -0.233762 3.310556 3.509491 -1.963400 1.464314 3.579283 4.644396 -28.458705 -3.071889 7.615579 -60.415334 -5.815489 9.718097 12.511515 -26.644193 0.620775 0.443563 -4.223581 -11.352457 25.133263 5.148954 7.263649 57.297394 3.527392 13.892403 -12.714907 29.586124 0.889817 7.133369 5.601137 -15.054213 
-0.374693 -1.881291 1.021177 -3.747524 1.518971 82.903535 2.816488 3.932617 10.059018 -3.346768 1.192860 2.509498 3.771816 12.694275 -17.123036 0.000000 -0.000000 0.000000 1.981311 -0.158137 3.753061 0.893374 -1.252517 12.343353 -0.571457 -8.120400 -19.718313 0.000000 -0.000000 0.000000 0.261512 -1.281300 1.139457 1.585327 -3.727692 6.374016 0.953204 -2.165126 -0.402407 3.441652 3.444341 -1.956960 1.648289 3.417141 4.366891 -28.490041 -3.137641 7.691146 -60.476117 -5.924391 9.833048 12.627582 -26.910057 0.677257 0.567509 -4.255561 -11.253820 25.160659 5.210480 7.310276 57.307747 3.546002 13.748920 -12.890606 29.258355 0.666111 7.043263 5.553694 -14.945579 
-0.375558 -1.880100 1.021380 -3.000800 1.500651 83.295731 3.069121 4.125134 10.247061 -3.559660 0.988311 1.053496 3.582438 11.989131 -16.475993 0.000000 -0.000000 0.000000 2.027586 -0.276129 3.368846 0.857553 -1.737221 12.181230 -0.548599 -8.247846 -19.535406 0.000000 -0.000000 0.000000 0.025726 -1.372862 0.939654 1.626836 -3.769516 6.533670 1.039107 -2.161133 -0.469718 3.595794 3.352720 -2.154381 1.968990 3.031457 4.097365 -28.399415 -3.217465 7.667242 -60.637232 -6.170971 10.026088 12.720528 -26.999032 0.789184 0.579690 -4.305409 -11.248104 25.132820 5.159205 7.304390 57.568120 3.584379 13.583863 -13.109116 28.609134 0.480778 7.198027 5.469362 -14.938170 
-0.375950 -1.879316 1.021742 -2.432148 1.456833 83.572963 3.134184 4.115898 10.094772 -3.660543 0.829170 0.565089 3.526354 11.625612 -16.225525 0.000000 -0.000000 0.000000 2.032039 -0.462981 3.105811 0.805046 -2.008857 12.054998 -0.560989 -8.350897 -19.435632 0.000000 -0.000000 0.000000 -0.034041 -1.335382 0.910302 1.574057 -3.747647 6.429254 0.972323 -2.165938 -0.516890 3.708884 3.256640 -2.360340 2.238617 2.616820 4.273049 -28.301515 -3.166441 7.664615 -60.751507 -6.264495 10.106753 12.800345 -27.150614 0.811161 0.431387 -4.355579 -11.190159 25.147223 5.024686 7.336965 57.834729 3.403409 13.480382 -13.228048 28.124992 0.356176 7.422671 5.427428 -14.913271 
-0.375974 -1.877898 1.022099 -1.922341 1.403334 83.777652 3.109217 3.982137 9.699066 -3.707292 0.683189 0.616490 3.533917 11.414007 -16.150341 0.000000 -0.000000 0.000000 1.981271 -0.681713 2.901646 0.779978 -2.263793 11.891315 -0.563103 -8.415306 -19.308700 0.000000 -0.000000 0.000000 -0.031053 -1.248882 1.059863 1.486994 -3.698445 6.341796 0.892544 -2.125863 -0.565388 3.712461 3.123366 -2.638288 2.474260 2.258622 4.335410 -28.331731 -3.124495 7.653281 -60.742694 -6.360316 10.132883 12.877717 -27.401352 0.792969 0.340725 -4.408564 -11.114275 25.185514 4.953054 7.414274 57.980755 3.211370 13.362938 -13.224851 27.779374 0.330895 7.544639 5.411770 -14.833341 
